<?xml version="1.0" encoding="UTF-8" standalone="no"?>
<svg
   width="984.34509mm"
   height="492.17255mm"
   viewBox="0 0 984.3451 492.17256"
   version="1.1"
   id="svg8"
   sodipodi:docname="module_logo.svg"
   inkscape:version="1.4.2 (ebf0e940d0, 2025-05-08)"
   inkscape:export-filename="./module_logo.png"
   inkscape:export-xdpi="20.643167"
   inkscape:export-ydpi="20.643167"
   xmlns:inkscape="http://www.inkscape.org/namespaces/inkscape"
   xmlns:sodipodi="http://sodipodi.sourceforge.net/DTD/sodipodi-0.dtd"
   xmlns="http://www.w3.org/2000/svg"
   xmlns:svg="http://www.w3.org/2000/svg"
   xmlns:rdf="http://www.w3.org/1999/02/22-rdf-syntax-ns#"
   xmlns:cc="http://creativecommons.org/ns#"
   xmlns:dc="http://purl.org/dc/elements/1.1/">
  <sodipodi:namedview
     id="namedview1"
     pagecolor="#ffffff"
     bordercolor="#000000"
     borderopacity="0.25"
     inkscape:showpageshadow="2"
     inkscape:pageopacity="0.0"
     inkscape:pagecheckerboard="0"
     inkscape:deskcolor="#d1d1d1"
     inkscape:document-units="mm"
     inkscape:zoom="0.44791854"
     inkscape:cx="1845.2016"
     inkscape:cy="584.92779"
     inkscape:window-width="2880"
     inkscape:window-height="1551"
     inkscape:window-x="0"
     inkscape:window-y="0"
     inkscape:window-maximized="1"
     inkscape:current-layer="layer1" />
  <defs
     id="defs2" />
  <metadata
     id="metadata5">
    <rdf:RDF>
      <cc:Work
         rdf:about="">
        <dc:format>image/svg+xml</dc:format>
        <dc:type
           rdf:resource="http://purl.org/dc/dcmitype/StillImage" />
      </cc:Work>
    </rdf:RDF>
  </metadata>
  <g
     id="layer1"
     transform="translate(223.9692,618.33278)">
    <g
       id="g2"
       inkscape:label="white_bg"
       transform="translate(-223.9692,-618.33278)">
      <rect
         style="fill:#ffffff;stroke:none;stroke-width:1.32292;stroke-linecap:round;stroke-linejoin:round;-inkscape-stroke:none"
         id="rect2"
         width="830"
         height="200"
         x="150"
         y="226.50372"
         rx="30.000053"
         ry="30.000053"
         inkscape:label="rectangle" />
      <path
         id="path1"
         style="fill:#ffffff;stroke:none;stroke-width:1.32292;stroke-linecap:round;stroke-linejoin:round;-inkscape-stroke:none"
         inkscape:label="triangle"
         d="M 22.716797,2.0234375 C 13.463224,2.73972 5.5204181,11.045054 5.1194584,20.299469 4.9372608,24.47693 6.294953,28.478559 7.255185,32.479042 10.461646,44.831046 13.535523,57.21788 16.690612,69.583717 50.148209,201.5942 83.584033,333.61692 117.11561,465.60444 c 1.04715,3.98964 2.00771,8.00568 3.16564,11.96392 0.97071,3.00061 2.86268,5.64818 5.3083,7.62668 4.77291,4.03825 11.54186,5.78485 17.60374,4.02093 4.71839,-1.31056 8.58394,-4.5512 11.8527,-8.07702 34.60053,-33.95601 69.27938,-67.83408 103.91079,-101.7598 73.07111,-71.54102 146.13153,-143.08781 219.13781,-214.68907 1.55599,-1.60304 3.30015,-3.05848 4.61275,-4.8749 4.86487,-7.37502 3.90351,-18.14072 -2.45249,-24.35079 -3.77074,-3.66818 -8.94508,-5.26171 -13.90869,-6.57531 C 320.80652,86.887787 175.27191,44.867014 29.721141,2.9055735 27.96727,2.4371101 26.24563,2.0658415 24.458316,1.9952229 23.877492,1.9657113 23.29673,1.9860635 22.716797,2.0234375 Z" />
    </g>
    <g
       id="g1675"
       transform="translate(-1.0000001e-6)"
       inkscape:label="title">
      <path
         d="m 613.53711,-328.21107 c -2.4205,-0.9729 -3.1993,-2.4395 -3.1993,-6.0242 0,-5.6956 2.1416,-8.1508 7.1096,-8.1508 4.9656,0 7.1097,2.4548 7.1097,8.1402 0,3.7663 -0.7416,5.0095 -3.6474,6.1143 -2.0061,0.7627 -3.7657,1.3462 -3.9103,1.2966 -0.1446,-0.05 -1.7026,-0.6688 -3.4623,-1.3761 z m -39.3569,85.96926 c -3.017,-3.01703 -2.8243,-9.58831 0.3659,-12.47539 5.6832,-5.14318 14.4628,-1.17054 14.4628,6.54416 0,4.84246 -3.4721,8.16568 -8.5316,8.16568 -2.2344,0 -5.0681,-1.0055 -6.2971,-2.23445 z m -210.9732,0.52814 c -1.2316,-1.23163 -1.7063,-11.1294 -1.7063,-35.57865 v -33.87233 l 3.3749,-1.53772 c 5.096,-2.3219 9.4224,0.5219 9.4224,6.19343 v 4.49468 l 4.6213,-4.45749 c 8.1308,-7.84272 20.8092,-10.25242 23.8683,-4.53658 2.5247,4.71753 -1.6458,9.85814 -7.9979,9.85814 -6.0575,0 -9.7344,1.75135 -15.8704,7.55918 l -4.6213,4.37409 v 22.89848 c 0,24.0261 -0.5557,26.31108 -6.3987,26.31108 -1.6423,0 -3.7538,-0.76784 -4.6923,-1.70631 z m -86.7375,0 c -1.2617,-1.26169 -1.7063,-14.58733 -1.7063,-51.13933 0,-47.41767 0.1122,-49.49297 2.7503,-50.90497 3.7367,-1.9998 5.1923,-1.8577 7.8126,0.7625 1.8108,1.8109 2.2344,5.8771 2.2344,21.4484 v 19.21392 l 5.3322,-4.13152 c 8.0044,-6.2019 13.4679,-7.9047 23.1221,-7.2064 9.9287,0.7182 14.783,3.68706 19.5287,11.9436 3.0479,5.30259 3.1766,6.80922 2.8439,33.28158 l -0.3485,27.72757 -3.9963,0.45823 c -7.6444,0.87653 -8.0901,-0.64051 -8.0901,-27.53984 0,-24.2362 -0.053,-24.66374 -3.5932,-28.87086 -6.6779,-7.93612 -18.1457,-7.13684 -28.8311,2.00947 l -5.9677,5.10814 v 23.0666 c 0,24.20252 -0.5501,26.47922 -6.3987,26.47922 -1.6423,0 -3.7538,-0.76784 -4.6923,-1.70631 z m 384.3467,2.25012 c -15.9932,-4.08331 -20.7984,-7.69012 -17.7741,-13.34114 1.8194,-3.39953 4.7203,-3.56071 12.7973,-0.71097 6.9073,2.43704 17.9994,2.78779 23.3867,0.73952 4.8216,-1.83315 7.5851,-7.64068 5.075,-10.66512 -0.9993,-1.20407 -8.4427,-4.20819 -16.541,-6.6758 -19.3,-5.88093 -23.5253,-9.31197 -24.3104,-19.74083 -0.7566,-10.04823 2.6173,-16.41246 11.1176,-20.97188 5.5377,-2.9703 7.7054,-3.2894 19.0462,-2.8034 14.0657,0.6028 21.0971,3.07359 21.753,7.64397 0.8016,5.58527 -2.9581,6.89881 -14.065,4.9139 -15.8184,-2.82691 -25.4621,0.65403 -25.4621,9.19063 0,4.17927 2.9365,5.71721 21.3949,11.20537 13.3706,3.97543 17.691,7.3444 19.9609,15.5653 2.6131,9.46399 -1.792,18.73446 -11.2123,23.59583 -3.558,1.83615 -20.5796,3.22578 -25.1667,2.05462 z m -117.8737,-47.82286 c -0.5061,-2.5417 -3.1562,-6.8608 -5.8891,-9.59801 -4.6449,-4.65214 -5.5628,-4.97674 -14.0732,-4.97674 -7.7359,0 -9.6833,0.53429 -12.9569,3.55482 -3.6189,3.33915 -7.7519,10.89595 -7.7519,14.17359 0,0.94194 7.4484,1.4676 20.7957,1.4676 h 20.7956 z m -29.5509,46.80773 c -8.6951,-2.45932 -16.0621,-8.20257 -20.0204,-15.60772 -2.6905,-5.03348 -3.1862,-8.17292 -3.1862,-20.18008 0,-11.86244 0.5087,-15.162 3.0691,-19.90697 6.4855,-12.01905 16.2439,-17.77412 30.1381,-17.77412 18.0558,0 31.3677,12.3115 32.6622,30.20764 0.8967,12.39749 0.7729,12.45019 -29.2669,12.45019 h -24.7078 l 0.924,3.19934 c 1.2872,4.45714 5.1349,9.60481 9.7655,13.06495 4.8243,3.60487 20.6528,4.03583 31.1013,0.84678 6.061,-1.84993 6.9972,-1.82842 9.0331,0.20748 8.7264,8.72641 -20.7614,18.79585 -39.512,13.49251 z m -51.4989,-46.80773 c -0.5061,-2.5417 -3.1562,-6.8608 -5.8891,-9.59801 -4.6449,-4.65214 -5.5628,-4.97674 -14.0732,-4.97674 -7.7359,0 -9.6833,0.53429 -12.9569,3.55482 -3.6189,3.33915 -7.7519,10.89595 -7.7519,14.17359 0,0.94194 7.4484,1.4676 20.7957,1.4676 h 20.7956 z m -29.5509,46.80773 c -8.6951,-2.45932 -16.0621,-8.20257 -20.0204,-15.60772 -2.6905,-5.03348 -3.1862,-8.17292 -3.1862,-20.18008 0,-11.86244 0.5087,-15.162 3.0691,-19.90697 6.4855,-12.01905 16.2439,-17.77412 30.1381,-17.77412 18.0558,0 31.3677,12.3115 32.6622,30.20764 0.8967,12.39749 0.7729,12.45019 -29.2669,12.45019 h -24.7078 l 0.924,3.19934 c 1.2872,4.45714 5.1349,9.60481 9.7655,13.06495 4.8243,3.60487 20.6527,4.03583 31.1012,0.84678 6.0611,-1.84993 6.9973,-1.82842 9.0332,0.20748 8.7264,8.72641 -20.7614,18.79585 -39.512,13.49251 z m -198.1325,-0.76612 c -8.4725,-3.84882 -9.2136,-6.671 -9.2136,-35.08858 v -24.81681 h -5.7323 c -9.473,0 -8.8508,-3.11203 3.0095,-15.05208 12.7311,-12.8166 15.5202,-13.4447 15.5202,-3.4953 v 7.0474 l 10.309,0.4178 c 9.5363,0.3864 10.3437,0.6634 10.7735,3.69532 0.7956,5.61188 -2.0913,7.38686 -12.0141,7.38686 h -9.0684 v 23.28768 c 0,27.24148 -0.094,27.04918 13.304,27.13485 l 8.7358,0.0559 v 4.26577 c 0,3.60396 -0.7721,4.5291 -4.9767,5.96294 -7.1629,2.44265 -14.0977,2.17337 -20.6469,-0.80171 z m 363.6835,34.35977 c -3.7322,-0.71863 -6.4048,-4.92274 -5.1719,-8.13561 0.9976,-2.59968 0.8298,-2.54511 8.8371,-2.87367 3.5619,-0.14615 6.6945,-1.11233 7.4433,-2.29566 0.7111,-1.12382 1.3027,-21.70447 1.3147,-45.73477 l 0.022,-43.69145 3.4595,-2.26668 c 2.691,-1.7633 4.1123,-1.9174 6.3986,-0.6938 2.8798,1.54121 2.9388,2.51457 2.9183,48.09111 -0.015,34.31667 -0.4869,47.45046 -1.7972,50.07288 -3.2472,6.49866 -12.8092,9.57154 -23.4242,7.52765 z"
         style="fill:#000000;stroke-width:1.42192638"
         id="path1390"
         inkscape:label="threejs" />
      <g
         id="g1668"
         inkscape:label="sfx">
        <path
           id="path1542"
           style="font-style:normal;font-variant:normal;font-weight:bold;font-stretch:normal;font-size:50.57253265px;line-height:1.25;font-family:IPAPGothic;-inkscape-font-specification:IPAPGothic;letter-spacing:0px;word-spacing:0px;fill:#d40000;fill-opacity:1;stroke:none;stroke-width:0.26339859"
           d="m 525.0994,-336.73846 q -1.81915,1.0666 -3.9087,1.5875 -2.08956,0.54571 -4.4987,0.54571 -6.36701,0 -9.95613,-3.86954 -3.58913,-3.86953 -3.58913,-10.71562 0,-6.87091 3.61371,-10.74043 3.6137,-3.89434 9.98072,-3.89434 2.21247,0 4.25287,0.5209 2.06497,0.52089 4.10536,1.6123 v 6.64766 q -1.57331,-1.36426 -3.46621,-2.08359 -1.8683,-0.74414 -3.88412,-0.74414 -3.51538,0 -5.40827,2.25722 -1.8929,2.25723 -1.8929,6.42442 0,4.16719 1.8929,6.39961 1.89289,2.23242 5.40827,2.23242 2.08956,0 3.90871,-0.69453 1.81914,-0.71934 3.44162,-2.15801 z m -50.96065,-26.36738 h 14.25816 v 22.2002 h 8.94823 v 5.58105 h -25.12388 v -5.58105 h 8.97282 v -16.61915 h -7.05533 z m 7.05533,-13.51856 h 7.20283 v 8.4832 h -7.20283 z m -31.93339,37.38067 v 14.48593 h -7.17825 v -38.34804 h 7.17825 v 4.16718 q 1.13083,-2.40605 2.97455,-3.62148 1.84373,-1.21543 4.32662,-1.21543 4.71994,0 7.32574,3.81993 2.60581,3.81991 2.60581,10.76523 0,7.04453 -2.65497,10.81485 -2.63038,3.77031 -7.52241,3.77031 -2.21248,0 -3.98246,-1.14102 -1.74539,-1.16582 -3.07288,-3.49746 z m 10.02989,-9.99629 q 0,-4.01837 -1.32749,-6.30039 -1.32748,-2.28203 -3.66287,-2.28203 -2.33539,0 -3.68746,2.28203 -1.35207,2.28202 -1.35207,6.30039 0,4.01836 1.35207,6.30039 1.35207,2.28203 3.68746,2.28203 2.33539,0 3.66287,-2.28203 1.32749,-2.28203 1.32749,-6.30039 z m -36.06332,-8.63203 q -2.58122,0 -4.05621,2.30683 -1.47497,2.28203 -1.47497,6.37481 0,4.09277 1.47497,6.39961 1.47499,2.28202 4.05621,2.28202 2.6058,0 4.08078,-2.28202 1.47499,-2.30684 1.47499,-6.39961 0,-4.09278 -1.47499,-6.37481 -1.47498,-2.30683 -4.08078,-2.30683 z m -12.73402,8.68164 q 0,-6.72207 3.44162,-10.64122 3.46621,-3.94394 9.2924,-3.94394 5.85076,0 9.29239,3.94394 3.46621,3.91915 3.46621,10.64122 0,6.72207 -3.46621,10.66601 -3.44163,3.91915 -9.29239,3.91915 -5.82619,0 -9.2924,-3.91915 -3.44162,-3.94394 -3.44162,-10.66601 z m -6.63742,12.45195 q -1.81915,1.0666 -3.90871,1.5875 -2.08956,0.54571 -4.4987,0.54571 -6.36701,0 -9.95614,-3.86954 -3.58912,-3.86953 -3.58912,-10.71562 0,-6.87091 3.61371,-10.74043 3.61371,-3.89434 9.98072,-3.89434 2.21247,0 4.25286,0.5209 2.06498,0.52089 4.10538,1.6123 v 6.64766 q -1.57333,-1.36426 -3.46621,-2.08359 -1.86832,-0.74414 -3.88413,-0.74414 -3.51537,0 -5.40827,2.25722 -1.89289,2.25723 -1.89289,6.42442 0,4.16719 1.89289,6.39961 1.8929,2.23242 5.40827,2.23242 2.08956,0 3.90871,-0.69453 1.81914,-0.71934 3.44163,-2.15801 z m -32.03172,-25.49922 v 6.35 q -1.99123,-1.28985 -4.15453,-1.93476 -2.13873,-0.66973 -4.30204,-0.66973 -2.40914,0 -3.63829,0.71933 -1.22915,0.69454 -1.22915,2.0836 0,1.98437 5.26077,3.22461 l 0.27041,0.0744 2.06497,0.49609 q 3.93329,0.94258 5.75244,3.05098 1.84373,2.08359 1.84373,5.65547 0,4.29121 -2.80247,6.44922 -2.77788,2.13321 -8.38281,2.13321 -2.4829,0 -5.08869,-0.44649 -2.60581,-0.42168 -5.28536,-1.28985 v -6.34999 q 2.38455,1.36425 4.84286,2.08359 2.48289,0.71933 4.79369,0.71933 2.53206,0 3.83496,-0.74413 1.3029,-0.74414 1.3029,-2.15801 0,-1.38906 -0.93415,-2.13321 -0.90958,-0.74414 -4.37579,-1.5875 l -1.99123,-0.44648 q -4.12995,-0.94257 -6.02285,-2.95176 -1.89289,-2.00918 -1.89289,-5.38261 0,-4.01837 2.87622,-6.25079 2.87621,-2.23242 8.08782,-2.23242 2.33539,0 4.6462,0.39688 2.33539,0.37206 4.52328,1.14101 z m -39.52954,4.36563 q -2.58122,0 -4.05621,2.30683 -1.47498,2.28203 -1.47498,6.37481 0,4.09277 1.47498,6.39961 1.47499,2.28202 4.05621,2.28202 2.6058,0 4.08078,-2.28202 1.47498,-2.30684 1.47498,-6.39961 0,-4.09278 -1.47498,-6.37481 -1.47498,-2.30683 -4.08078,-2.30683 z m -12.73403,8.68164 q 0,-6.72207 3.44163,-10.64122 3.46621,-3.94394 9.2924,-3.94394 5.85076,0 9.29238,3.94394 3.46621,3.91915 3.46621,10.64122 0,6.72207 -3.46621,10.66601 -3.44162,3.91915 -9.29238,3.91915 -5.82619,0 -9.2924,-3.91915 -3.44163,-3.94394 -3.44163,-10.66601 z m -5.6295,12.50156 q -2.50748,1.04179 -5.11329,1.5627 -2.6058,0.5209 -5.5066,0.5209 -6.90783,0 -10.5707,-3.72071 -3.6383,-3.7455 -3.6383,-10.76524 0,-6.79648 3.51538,-10.74043 3.51538,-3.94394 9.58739,-3.94394 6.12118,0 9.48906,3.67109 3.39246,3.6463 3.39246,10.29395 v 2.95176 h -18.65854 q 0.0246,3.27422 1.91748,4.88652 1.89289,1.61231 5.65411,1.61231 2.48288,0 4.89202,-0.71934 2.40914,-0.71933 5.03953,-2.28203 z m -6.0966,-15.62696 q -0.0492,-2.87734 -1.47499,-4.34081 -1.40123,-1.48829 -4.15453,-1.48829 -2.48288,0 -3.95787,1.53789 -1.47499,1.51309 -1.7454,4.31602 z m -23.00974,-3.12538 q -1.17998,-1.09141 -2.77788,-1.63711 -1.57332,-0.5457 -3.46621,-0.5457 -2.28623,0 -4.00704,0.81855 -1.69623,0.79375 -2.63039,2.33164 -0.58999,0.94257 -0.83582,2.28203 -0.22125,1.33945 -0.22125,4.06797 v 12.79922 h -7.20283 v -27.78125 h 7.20283 v 4.31602 q 1.05707,-2.38126 3.24497,-3.6711 2.18789,-1.31465 5.11327,-1.31465 1.47499,0 2.87621,0.37207 1.42582,0.34726 2.70414,1.0418 z m -31.51547,18.75234 q -2.50747,1.04179 -5.11327,1.5627 -2.60581,0.5209 -5.5066,0.5209 -6.90784,0 -10.57071,-3.72071 -3.63829,-3.7455 -3.63829,-10.76524 0,-6.79648 3.51537,-10.74043 3.51538,-3.94394 9.58739,-3.94394 6.12118,0 9.48906,3.67109 3.39246,3.6463 3.39246,10.29395 v 2.95176 h -18.65854 q 0.0246,3.27422 1.91749,4.88652 1.89288,1.61231 5.65409,1.61231 2.48289,0 4.89203,-0.71934 2.40913,-0.71933 5.03952,-2.28203 z m -6.0966,-15.62696 q -0.0492,-2.87734 -1.47497,-4.34081 -1.40124,-1.48829 -4.15454,-1.48829 -2.48289,0 -3.95787,1.53789 -1.47499,1.51309 -1.7454,4.31602 z m -34.34251,-18.67792 v 7.88789 h 9.4153 v 5.58105 h -9.4153 v 13.14649 q 0,1.86035 0.88499,2.6789 0.90957,0.79376 2.99913,0.79376 h 5.53118 v 5.58105 h -6.04743 q -6.19492,0 -8.38281,-1.98438 -2.18789,-2.00918 -2.18789,-7.4166 v -12.79922 h -7.03076 v -5.58105 h 7.03076 v -7.88789 z m -34.73585,19.42207 q -5.48202,-2.1084 -7.42408,-4.41523 -1.94206,-2.33164 -1.94206,-6.25079 0,-5.03535 3.19579,-7.91269 3.1958,-2.87735 8.77616,-2.87735 2.53205,0 5.0641,0.59532 2.53205,0.5705 5.01494,1.71152 v 7.14375 q -2.33538,-1.66191 -4.74453,-2.53008 -2.40913,-0.86817 -4.7691,-0.86817 -2.63039,0 -4.03162,1.06661 -1.40124,1.06659 -1.40124,3.05097 0,1.5379 1.00791,2.55489 1.03248,0.99218 4.27745,2.20762 l 3.12205,1.19062 q 4.42494,1.63711 6.5145,4.34081 2.08956,2.70372 2.08956,6.8213 0,5.60586 -3.29413,8.38398 -3.26954,2.75333 -9.90697,2.75333 -2.72871,0 -5.48202,-0.66973 -2.72872,-0.64493 -5.28536,-1.93476 v -7.56544 q 2.90081,2.0836 5.60494,3.10058 2.72872,1.017 5.38369,1.017 2.67956,0 4.15453,-1.21544 1.47499,-1.24023 1.47499,-3.44784 0,-1.66192 -0.98332,-2.90215 -0.98333,-1.26504 -2.85163,-1.98437 z"
           inkscape:label="stereoscopic" />
        <path
           id="path1556"
           style="font-style:normal;font-variant:normal;font-weight:bold;font-stretch:normal;font-size:50.57253265px;line-height:1.25;font-family:IPAPGothic;-inkscape-font-specification:IPAPGothic;letter-spacing:0px;word-spacing:0px;fill:#00aad4;fill-opacity:1;stroke:none;stroke-width:0.26339859"
           d="m 735.55486,-362.23768 v 6.35 q -1.99122,-1.28985 -4.15453,-1.93476 -2.13872,-0.66973 -4.30203,-0.66973 -2.40914,0 -3.63829,0.71933 -1.22916,0.69454 -1.22916,2.0836 0,1.98437 5.26078,3.22461 l 0.27042,0.0744 2.06497,0.49609 q 3.93329,0.94258 5.75243,3.05098 1.84373,2.08359 1.84373,5.65547 0,4.29121 -2.80246,6.44922 -2.77789,2.13321 -8.38283,2.13321 -2.48288,0 -5.08869,-0.44649 -2.6058,-0.42168 -5.28536,-1.28985 v -6.34999 q 2.38457,1.36425 4.84287,2.08359 2.48288,0.71933 4.79369,0.71933 2.53206,0 3.83496,-0.74413 1.3029,-0.74414 1.3029,-2.15801 0,-1.38906 -0.93416,-2.13321 -0.90957,-0.74414 -4.37578,-1.5875 l -1.99123,-0.44648 q -4.12995,-0.94257 -6.02284,-2.95176 -1.8929,-2.00918 -1.8929,-5.38261 0,-4.01837 2.87622,-6.25079 2.87622,-2.23242 8.08782,-2.23242 2.33539,0 4.6462,0.39688 2.33539,0.37206 4.52327,1.14101 z m -37.71036,-8.75605 v 7.88789 h 9.41531 v 5.58105 h -9.41531 v 13.14649 q 0,1.86035 0.88499,2.6789 0.90957,0.79376 2.99913,0.79376 h 5.53119 v 5.58105 h -6.04743 q -6.19493,0 -8.38282,-1.98438 -2.18789,-2.00918 -2.18789,-7.4166 v -12.79922 h -7.03076 v -5.58105 h 7.03076 v -7.88789 z m -21.19059,34.25527 q -1.81915,1.0666 -3.90871,1.5875 -2.08956,0.54571 -4.49869,0.54571 -6.36701,0 -9.95614,-3.86954 -3.58912,-3.86953 -3.58912,-10.71562 0,-6.87091 3.61371,-10.74043 3.6137,-3.89434 9.98072,-3.89434 2.21246,0 4.25286,0.5209 2.06498,0.52089 4.10537,1.6123 v 6.64766 q -1.57331,-1.36426 -3.46621,-2.08359 -1.86831,-0.74414 -3.88412,-0.74414 -3.51538,0 -5.40827,2.25722 -1.8929,2.25723 -1.8929,6.42442 0,4.16719 1.8929,6.39961 1.89289,2.23242 5.40827,2.23242 2.08955,0 3.9087,-0.69453 1.81915,-0.71934 3.44163,-2.15801 z m -29.303,0.0496 q -2.50747,1.04179 -5.11327,1.5627 -2.60581,0.5209 -5.5066,0.5209 -6.90784,0 -10.57072,-3.72071 -3.63829,-3.7455 -3.63829,-10.76524 0,-6.79648 3.51538,-10.74043 3.51538,-3.94394 9.58738,-3.94394 6.12119,0 9.48906,3.67109 3.39247,3.6463 3.39247,10.29395 v 2.95176 h -18.65854 q 0.0246,3.27422 1.91748,4.88652 1.89289,1.61231 5.6541,1.61231 2.48289,0 4.89203,-0.71934 2.40913,-0.71933 5.03952,-2.28203 z m -6.0966,-15.62696 q -0.0492,-2.87734 -1.47497,-4.34081 -1.40124,-1.48829 -4.15455,-1.48829 -2.48288,0 -3.95786,1.53789 -1.47499,1.51309 -1.7454,4.31602 z m -33.13795,-13.2209 v 2.43087 h 8.45658 v 5.58105 h -8.45658 v 22.2002 h -7.20283 v -22.2002 h -6.68658 v -5.58105 h 6.68658 v -1.93477 q 0,-5.01055 2.06498,-6.94531 2.06498,-1.93477 7.6699,-1.93477 h 5.92453 v 5.58105 h -5.62952 q -1.62248,0 -2.21248,0.59532 -0.56541,0.59532 -0.61458,2.20761 z m -30.31089,0 v 2.43087 h 8.45656 v 5.58105 h -8.45656 v 22.2002 h -7.20284 v -22.2002 h -6.68659 v -5.58105 h 6.68659 v -1.93477 q 0,-5.01055 2.06498,-6.94531 2.06497,-1.93477 7.66991,-1.93477 h 5.92451 v 5.58105 h -5.62952 q -1.62248,0 -2.21247,0.59532 -0.56541,0.59532 -0.61457,2.20761 z m -21.48559,30.21212 h -22.86224 v -37.0334 h 22.86224 v 6.44922 h -15.61024 v 7.9871 h 14.13525 v 6.44922 h -14.13525 v 9.69864 h 15.61024 z"
           inkscape:label="effects" />
      </g>
      <path
         d="m 181.33583,-304.3106 q -0.37207,0.64079 -0.53743,1.4056 -0.18604,0.74414 -0.18604,1.65365 0,3.22461 2.1084,4.96093 2.08773,1.71566 6.01514,1.71566 h 12.19563 v 3.82406 h -23.15104 v -3.82406 h 3.59668 q -2.1084,-1.19889 -3.12125,-3.12125 -1.03353,-1.92237 -1.03353,-4.67155 0,-0.39274 0.062,-0.86817 0.0413,-0.47542 0.14469,-1.0542 z m -0.88883,30.3444 q 0,3.05925 2.39778,4.83692 2.37712,1.77767 6.5319,1.77767 4.15479,0 6.55258,-1.757 2.37711,-1.77767 2.37711,-4.85759 0,-3.03857 -2.39779,-4.81624 -2.39778,-1.77767 -6.5319,-1.77767 -4.11344,0 -6.51123,1.77767 -2.41845,1.77767 -2.41845,4.81624 z m -3.22461,0 q 0,-4.96093 3.22461,-7.7928 3.22461,-2.83187 8.92968,-2.83187 5.68441,0 8.92969,2.83187 3.22461,2.83187 3.22461,7.7928 0,4.98161 -3.22461,7.81348 -3.24528,2.8112 -8.92969,2.8112 -5.70507,0 -8.92968,-2.8112 -3.22461,-2.83187 -3.22461,-7.81348 z m -8.45427,12.1543 h 3.1626 v 3.63802 q 0,2.04639 0.82682,2.85254 0.82683,0.78548 2.97657,0.78548 h 2.04638 v -6.26318 h 2.95589 v 6.26318 h 20.19515 v 3.82406 h -20.19515 v 3.63802 h -2.95589 v -3.63802 h -1.6123 q -3.8654,0 -5.6224,-1.79834 -1.77767,-1.79834 -1.77767,-5.70508 z"
         style="font-style:normal;font-variant:normal;font-weight:normal;font-stretch:normal;font-size:42.33333206px;line-height:1.25;font-family:'DejaVu Sans';-inkscape-font-specification:'DejaVu Sans';letter-spacing:0px;word-spacing:0px;fill:#000000;fill-opacity:1;stroke:none;stroke-width:0.26458332"
         id="path1563"
         inkscape:label="for" />
    </g>
    <g
       id="g1680"
       inkscape:label="stereo_anaglyph_logo"
       inkscape:export-filename="module_logo.png"
       inkscape:export-xdpi="96"
       inkscape:export-ydpi="96">
      <path
         id="path1566"
         style="fill:#00ffff;stroke-width:1.39986086"
         d="m -115.31029,-533.54488 c 14.22054,-13.8857 25.73966,-25.6267 25.59799,-26.0912 -0.53758,-1.7632 -87.55666,-26.7947 -87.93902,-25.2961 -0.34158,1.3389 18.02357,84.9772 19.82835,90.3019 0.4901,1.446 2.99973,-0.237 8.67343,-5.8166 4.39105,-4.3182 19.61873,-19.2124 33.83925,-33.098 z m 98.6319,37.7342 c 17.79109,-17.5175 31.85736,-32.3109 31.25839,-32.8743 -1.10652,-1.0408 -82.85466,-25.5681 -85.217,-25.5681 -0.70858,0 3.00616,19.036 8.25502,42.3023 5.24886,23.2663 9.85774,43.7875 10.24204,45.6026 0.38429,1.8152 1.24209,3.095 1.90629,2.8439 0.66428,-0.2511 15.76407,-14.789 33.55526,-32.3064 z m -44.51793,34.3383 c 0.1169,-3.9853 -20.27029,-89.8768 -21.2531,-89.5405 -1.99097,0.6814 -66.59037,64.0749 -65.96311,64.7318 0.7561,0.7918 83.24517,25.687 85.46343,25.7929 0.94685,0.045 1.7356,-0.3977 1.75278,-0.9842 z m 149.51935,-2.7717 c 21.65811,-21.2268 32.33835,-32.6125 31.19681,-33.2576 -3.16253,-1.7871 -84.91319,-25.7843 -85.56856,-25.1179 -0.97776,0.9941 19.19,90.6521 20.39134,90.6521 0.57638,0 15.86748,-14.5245 33.98041,-32.2766 z m -54.29938,-9.7215 c -5.49568,-24.6631 -10.36106,-45.2282 -10.81198,-45.7003 -0.45084,-0.4722 -15.63138,13.7208 -33.73458,31.54 -18.10322,17.8191 -32.61713,32.7103 -32.25319,33.0914 0.76186,0.7978 83.00638,25.7069 85.28401,25.8296 0.8871,0.048 -2.60563,-18.3793 -8.48426,-44.7607 z m 160.48908,41.7766 c 18.57112,-18.1092 33.60586,-33.0611 33.4105,-33.2264 -1.37012,-1.1592 -87.95404,-26.275 -88.53693,-25.6823 -0.96517,0.9814 19.27181,91.8346 20.4555,91.8346 0.49789,0 16.0998,-14.8167 34.67093,-32.9259 z m -45.74867,33.2813 c 0.0994,-3.7063 -20.0119,-89.9586 -20.89931,-89.6311 -2.10428,0.7768 -65.67551,63.5694 -65.48946,64.6874 0.17158,1.0311 80.6824,25.6765 84.63896,25.909 0.94661,0.056 1.73407,-0.3787 1.74981,-0.9653 z m -246.21199,-17.742 c 27.56809,-27.1676 33.07132,-33.2154 31.01621,-34.0857 -6.22463,-2.636 -85.74307,-25.5621 -86.38771,-24.9066 -0.59471,0.6047 17.52752,84.3805 19.52112,90.2426 0.33246,0.9776 0.99401,1.7775 1.47015,1.7775 0.47613,0 15.94726,-14.8625 34.38023,-33.0278 z m 114.95384,21.3997 c 18.8486,-18.454 23.63922,-23.8477 21.70967,-24.4425 -7.98072,-2.4601 -79.94398,-23.6059 -82.95635,-24.3761 l -3.62817,-0.9276 10.52761,46.258 10.52761,46.2579 9.81709,-9.5451 c 5.39937,-5.2499 20.70053,-20.2009 34.00254,-33.2246 z m -53.07716,45.3988 c -0.32983,-0.9776 -5.20225,-22.0963 -10.82748,-46.9306 -5.62524,-24.8343 -10.64813,-44.9901 -11.16194,-44.7907 -1.5042,0.5838 -67.4834,65.7093 -67.258,66.3879 0.19864,0.598 86.29776,26.8343 88.66746,27.0189 0.64883,0.051 0.9098,-0.7079 0.57996,-1.6855 z m 158.20231,-12.0529 c 13.78279,-13.4881 24.7964,-24.7633 24.47463,-25.0561 -1.05496,-0.9599 -88.19873,-26.5088 -88.69538,-26.0038 -0.40843,0.4153 14.95639,71.2063 19.12899,88.1338 l 1.3482,5.4695 9.34192,-9.0098 c 5.13814,-4.9553 20.61886,-20.0455 34.40164,-33.5336 z m -53.59758,44.5919 c 0.0217,-1.5311 -19.59571,-88.7567 -20.45531,-90.9509 -0.85138,-2.1729 -6.53572,2.7917 -34.52696,30.1554 -18.42933,18.0162 -33.45531,33.2638 -33.39116,33.8836 0.0639,0.6199 19.50854,6.9872 43.20959,14.1496 44.50082,13.4481 45.15143,13.632 45.16384,12.7623 z m -132.5043,1.5352 c 12.58317,-12.3641 22.65325,-22.7079 22.37791,-22.9863 -0.75813,-0.7663 -86.70764,-26.3911 -87.11854,-25.9733 -0.31764,0.323 15.53692,72.66415 19.01447,86.75917 l 1.37237,5.56256 10.73761,-10.44101 c 5.90564,-5.74254 21.0329,-20.55707 33.61618,-32.92112 z m 95.69241,42.35434 c 17.60676,-17.20531 32.17555,-31.92225 32.37503,-32.70431 0.19946,-0.78206 -19.13461,-7.22053 -42.96467,-14.30783 -23.83008,-7.0873 -43.34586,-12.5261 -43.36842,-12.0864 -0.14588,2.8428 20.27492,90.96536 21.01939,90.70498 0.50953,-0.17824 15.332,-14.40113 32.93867,-31.60644 z m -44.22649,30.9269 c -0.003,-1.3686 -4.52368,-22.21557 -10.04755,-46.32658 l -10.04332,-43.83826 -33.9296,33.15161 c -19.44878,19.00282 -33.17067,33.42041 -32.15137,33.78151 3.6446,1.29114 84.1523,25.50884 85.14396,25.61237 0.5676,0.0593 1.03017,-1.01204 1.02788,-2.38065 z m -35.14003,46.73925 c 18.54115,-18.28427 33.48144,-33.4847 33.20069,-33.77877 -0.7401,-0.77502 -89.39014,-27.27242 -89.85217,-26.85672 -0.92465,0.83187 20.77227,94.69374 21.8001,94.30779 0.62704,-0.2355 16.31023,-15.38803 34.85138,-33.6723 z m -41.78065,47.69156 c -0.82779,-1.04758 -7.59708,-29.04176 -15.043,-62.20929 -7.44592,-33.16751 -20.52945,-91.33811 -29.07451,-129.26796 -8.54506,-37.9299 -24.94862,-110.7896 -36.4524,-161.9104 -11.50377,-51.1209 -20.57417,-93.832 -20.15646,-94.9136 0.4177,-1.0817 2.31943,-1.9666 4.22607,-1.9666 1.90664,0 72.1773,20.4951 156.15701,45.5448 83.97974,25.0496 177.39193,52.9096 207.58265,61.9109 70.08319,20.8954 63.81705,18.6753 63.76124,22.5904 -0.0354,2.4869 -39.21207,41.6073 -162.93429,162.70032 -89.58811,87.68438 -163.7142,159.42614 -164.72451,159.42614 -1.0103,0 -2.5141,-0.85712 -3.3418,-1.90471 z"
         inkscape:label="cyan" />
      <path
         d="m -123.37604,-533.54487 c 14.46811,-13.8857 26.18051,-25.6267 26.02751,-26.0912 -0.5806,-1.7632 -90.73285,-26.7947 -91.1053,-25.2961 -0.33275,1.3389 19.84631,84.97719 21.78676,90.30189 0.52696,1.446 3.09156,-0.237 8.86346,-5.8166 4.46705,-4.31819 19.95947,-19.21239 34.42757,-33.09799 z m 102.32075,37.73419 c 18.0987,-17.51749 32.3943,-32.31089 31.768,-32.87429 -1.157,-1.0408 -85.86325,-25.5681 -88.30065,-25.5681 -0.7311,0 3.3817,19.036 9.13954,42.3023 5.7579,23.26629 10.8151,43.7875 11.2383,45.6026 0.4232,1.8152 1.3271,3.095 2.0087,2.8439 0.6817,-0.2511 16.04741,-14.789 34.14611,-32.30641 z m -45.42721,34.33831 c 0.062,-3.9853 -22.23638,-89.8768 -23.24548,-89.5405 -2.04425,0.6814 -67.76366,64.07489 -67.10681,64.73179 0.79177,0.7918 86.26802,25.68701 88.55829,25.79291 0.9776,0.045 1.7849,-0.3977 1.794,-0.9842 z m 154.22931,-2.7717 c 22.034,-21.22681 32.8861,-32.61251 31.6988,-33.25761 -3.2893,-1.7871 -87.9905,-25.78429 -88.6569,-25.11789 -0.9942,0.9941 21.1333,90.65209 22.3728,90.65209 0.5947,0 16.158,-14.52449 34.5853,-32.27659 z m -56.1677,-9.7215 c -6.0331,-24.66311 -11.3556,-45.2282 -11.8278,-45.7003 -0.4721,-0.4722 -15.9262,13.7208 -34.3425,31.53999 -18.4162,17.81911 -33.17221,32.71031 -32.79111,33.09141 0.7978,0.7978 86.02191,25.70689 88.37371,25.82959 0.916,0.048 -2.9588,-18.37929 -9.4123,-44.76069 z m 166.203,41.77659 c 18.8948,-18.10919 34.1873,-33.06109 33.9833,-33.22639 -1.4307,-1.1592 -91.1352,-26.27501 -91.7279,-25.68231 -0.9814,0.9814 21.2351,91.8346 22.4564,91.8346 0.5137,0 16.3934,-14.8167 35.2882,-32.9259 z m -46.7127,33.2813 c 0.048,-3.7063 -21.9711,-89.9586 -22.8819,-89.6311 -2.1597,0.7768 -66.8271,63.5694 -66.6187,64.6874 0.1922,1.0311 83.6237,25.6765 87.7094,25.909 0.9775,0.056 1.7836,-0.3787 1.7912,-0.9653 z m -254.29594,-17.742 c 28.04439,-27.16759 33.63346,-33.21539 31.50026,-34.08569 -6.46117,-2.636 -88.84347,-25.5621 -89.49895,-24.9066 -0.6047,0.6047 19.32574,84.38049 21.46891,90.24259 0.3574,0.9776 1.05176,1.7775 1.54302,1.7775 0.49126,0 16.23533,-14.8625 34.98676,-33.0278 z m 118.92104,21.3997 c 19.176,-18.454 24.0395,-23.8477 22.0399,-24.4425 -8.2705,-2.4601 -82.83131,-23.6059 -85.95071,-24.37609 l -3.7571,-0.9276 11.54261,46.25799 11.5426,46.2579 9.9885,-9.5451 c 5.4937,-5.2499 21.0611,-20.2009 34.5942,-33.2246 z m -54.0957,45.3988 c -0.3547,-0.9776 -5.69261,-22.0963 -11.86191,-46.9306 -6.1693,-24.8343 -11.6483,-44.9901 -12.1755,-44.7907 -1.5434,0.5838 -68.66091,65.7093 -68.41837,66.3879 0.21376,0.598 89.43448,26.8343 91.88218,27.0189 0.6702,0.051 0.9283,-0.7079 0.5736,-1.6855 z m 163.0516,-12.0529 c 14.0223,-13.4881 25.22,-24.7633 24.8837,-25.0561 -1.1026,-0.9599 -91.3911,-26.5088 -91.8961,-26.0038 -0.4153,0.4153 16.4791,71.2063 21.0333,88.1338 l 1.4715,5.4695 9.5062,-9.0098 c 5.2285,-4.9553 20.9791,-20.0455 35.0014,-33.5336 z m -54.6446,44.5919 c 0,-1.5311 -21.524,-88.7567 -22.4432,-90.9509 -0.9104,-2.1729 -6.7023,2.7917 -35.1804,30.1554 -18.7499,18.0162 -34.029,33.2638 -33.9537,33.8836 0.075,0.6199 20.2312,6.9872 44.7907,14.1496 46.1126,13.4481 46.7866,13.632 46.7866,12.7623 z m -136.69181,1.5352 c 12.8011,-12.3641 23.039,-22.7079 22.7508,-22.9863 -0.7935,-0.7663 -89.85084,-26.3911 -90.26864,-25.9733 -0.32299,0.323 17.09952,72.66415 20.89491,86.75917 l 1.4978,5.56256 10.9252,-10.44101 c 6.0088,-5.74254 21.39882,-20.55707 34.19993,-32.92112 z m 99.35591,42.35434 c 17.9131,-17.20531 32.7283,-31.92225 32.9226,-32.70431 0.1943,-0.78206 -19.8488,-7.22053 -44.5403,-14.30783 -24.6915,-7.0873 -44.9074,-12.5261 -44.9242,-12.0864 -0.1087,2.8428 22.2573,90.96536 23.0216,90.70498 0.5231,-0.17824 15.6073,-14.40113 33.5203,-31.60644 z m -45.1768,30.9269 c -0.023,-1.3686 -4.9942,-22.21557 -11.0483,-46.32658 l -11.0072,-43.83826 -34.51998,33.15161 c -19.78711,19.00282 -33.73296,33.42041 -32.67596,33.78151 3.7794,1.29114 87.20124,25.50884 88.22594,25.61237 0.5865,0.0593 1.048,-1.01204 1.0255,-2.38065 z m -35.56891,46.73925 c 18.86131,-18.28427 34.05261,-33.4847 33.75861,-33.77877 -0.775,-0.77502 -92.63144,-27.27242 -93.10204,-26.85672 -0.9418,0.83187 22.82535,94.69374 23.88012,94.30779 0.6435,-0.2355 16.60201,-15.38803 35.46331,-33.6723 z m -42.40653,47.69156 c -0.8695,-1.04758 -8.2657,-29.04176 -16.4361,-62.20929 -8.17044,-33.16751 -22.52541,-91.33811 -31.89996,-129.26796 -9.37453,-37.9299 -27.37113,-110.78959 -39.99243,-161.9104 -12.62131,-51.12089 -22.60822,-93.832 -22.19316,-94.9136 0.41506,-1.0817 2.36421,-1.9666 4.33143,-1.9666 1.96722,0 74.77215,20.49511 161.78866,45.54481 87.0165,25.0496 183.8066,52.90959 215.089,61.91089 72.6174,20.89541 66.1195,18.67531 66.1195,22.59041 0,2.4869 -39.8459,41.60729 -165.7179,162.70031 -91.1448,87.68438 -166.57059,159.42614 -167.61299,159.42614 -1.0424,0 -2.6066,-0.85712 -3.47605,-1.90471 z"
         style="display:inline;fill:#ff0000;stroke-width:1.42193"
         id="path1568"
         inkscape:label="red" />
      <path
         id="path1605"
         d="m -189.55759,-596.56482 c -0.0369,0.0654 -0.0687,0.13139 -0.0946,0.19843 -0.12559,0.32518 0.62013,4.47088 2.01795,11.41844 1.55369,0.19688 5.25352,1.0327 10.32651,2.29288 -0.24824,-1.34461 -0.3745,-2.15598 -0.34365,-2.27687 0.38235,-1.4986 87.40125,23.53241 87.93883,25.29562 0.14165,0.4645 -11.37741,12.20573 -25.59794,26.09143 -14.22051,13.8856 -29.44823,28.78003 -33.83928,33.09824 -5.6737,5.57959 -8.18327,7.26218 -8.67336,5.81618 -0.20473,-0.60405 -0.6313,-2.25687 -1.21079,-4.64209 -4.90643,4.6314 -7.14539,5.98046 -7.63312,4.64209 -0.92337,-2.53376 -5.97662,-22.80719 -10.98434,-43.5007 2.48775,11.33342 5.24053,23.72444 8.15557,36.67836 11.50383,51.12081 27.90752,123.98063 36.45258,161.91053 8.54506,37.92987 21.62879,96.10058 29.07472,129.26809 7.44593,33.16753 14.21521,61.16153 15.04302,62.20912 0.56663,0.71718 1.44864,1.33768 2.27374,1.66243 3.67594,-2.91783 35.71976,-33.20799 81.64153,-77.08212 24.73103,-24.0411 53.48364,-52.08582 84.15094,-82.10145 123.72223,-121.09302 162.89885,-160.21375 162.93425,-162.70065 0.0558,-3.91509 6.32169,-1.69495 -63.76149,-22.59037 -7.6074,-2.26811 -37.83308,-11.28381 -52.30637,-15.60007 -44.51895,-12.81318 -95.80073,-27.57323 -160.89096,-46.31086 -72.09274,-20.75355 -134.29305,-38.34077 -154.67374,-43.77666 z m 111.96938,42.31163 c 0.39032,0 3.05261,0.6781 6.98149,1.7389 -0.13626,-1.11377 -0.15608,-1.7389 -0.0305,-1.7389 2.36233,0 84.11048,24.52767 85.21699,25.56846 0.59899,0.56341 -13.46694,15.35647 -31.25803,32.87395 -17.79119,17.5174 -32.89128,32.05546 -33.55557,32.30658 -0.64693,0.24455 -1.47645,-0.96457 -1.87431,-2.70476 -1.82702,1.67937 -2.9225,2.64181 -3.09335,2.70476 -0.68159,0.25109 -1.58546,-1.02857 -2.00866,-2.84377 -0.4232,-1.81509 -5.48018,-22.3366 -11.23807,-45.60289 -5.75784,-23.2663 -9.8711,-42.30233 -9.14001,-42.30233 z m -12.13982,3.24012 c 0.14841,-0.0495 0.76692,1.80427 1.69757,4.95059 3.18108,-2.9808 5.25147,-4.8378 5.58104,-4.95059 0.98282,-0.33632 21.36987,85.55548 21.25297,89.54076 -0.0172,0.58651 -0.806,1.02894 -1.75286,0.98393 -0.24673,-0.0118 -1.53136,-0.34387 -3.5414,-0.90175 -0.0796,0.54486 -0.85481,0.94462 -1.78593,0.90175 -2.29026,-0.10591 -87.76663,-25.00092 -88.5584,-25.79274 -0.65685,-0.65688 65.06276,-64.05057 67.10701,-64.73195 z m 120.60864,28.38016 c 0.31055,0.009 1.41164,0.24979 3.06338,0.65423 -0.0355,-0.37245 -0.0358,-0.597 0.007,-0.64079 0.65537,-0.66641 82.40588,23.33074 85.56842,25.11785 1.14154,0.6451 -9.53845,12.0306 -31.19655,33.25741 -18.11292,17.75208 -33.40399,32.27657 -33.98036,32.27657 -0.059,0 -0.16496,-0.22315 -0.31056,-0.63408 -0.49552,0.41127 -0.79825,0.63408 -0.87075,0.63408 -1.23952,0 -23.36699,-89.65771 -22.37279,-90.65183 0.0104,-0.0104 0.0412,-0.0149 0.092,-0.0134 z m -11.16261,2.95539 c 0.0146,2.4e-4 0.0257,0.005 0.0331,0.0119 0.084,0.0839 0.32821,0.8295 0.69556,2.09394 1.66796,-1.44788 2.65607,-2.20824 2.76519,-2.09394 0.45093,0.4721 5.31608,21.03694 10.81174,45.70005 5.87865,26.38139 9.37136,44.80856 8.48424,44.76057 -0.14608,-0.008 -0.63127,-0.12047 -1.39266,-0.31935 -0.0151,0.20674 -0.0536,0.32303 -0.12351,0.31935 -2.3518,-0.12269 -87.57613,-25.03162 -88.37395,-25.82942 -0.38108,-0.3811 14.3751,-15.27241 32.79129,-33.09152 18.12854,-17.54076 33.38632,-31.56791 34.30902,-31.55156 z m 119.75806,28.57085 c 0.0927,0.006 0.30965,0.0489 0.53589,0.0946 0.005,-0.0419 0.0127,-0.0732 0.0253,-0.0858 0.5927,-0.59269 90.29756,24.52349 91.72824,25.68268 0.20399,0.16532 -15.08866,15.11721 -33.98346,33.22641 -18.89479,18.10919 -34.77458,32.92562 -35.28827,32.92562 -0.0962,0 -0.3352,-0.6195 -0.67024,-1.65828 -1.17927,1.06344 -1.88365,1.65828 -1.98181,1.65828 -1.18369,0 -21.42077,-90.85329 -20.4556,-91.83471 0.009,-0.009 0.0395,-0.0119 0.0899,-0.009 z m -11.61118,2.56781 c 0.0212,-0.008 0.0562,0.049 0.0987,0.13747 0.0977,-0.0686 0.17886,-0.12133 0.22376,-0.13747 0.9108,-0.32751 22.9298,85.92491 22.8818,89.63122 -0.008,0.58661 -0.81362,1.02132 -1.79112,0.96531 -0.19061,-0.0108 -0.60645,-0.0908 -1.12601,-0.20307 -0.308,0.14785 -0.70409,0.22873 -1.13792,0.20307 -2.61075,-0.15341 -38.47677,-10.91555 -62.67577,-18.52962 -12.92842,-3.92496 -22.7043,-7.02865 -22.76967,-7.37939 -0.13899,-0.7457 28.53544,-28.87868 48.32162,-47.79708 9.70854,-9.44486 17.27388,-16.63176 17.9746,-16.89044 z m -288.99993,12.88346 c 0.57137,0.0127 3.78132,0.78806 8.57726,2.03089 -0.21444,-1.23476 -0.3139,-1.96416 -0.26148,-2.01745 0.64463,-0.65551 80.16285,22.27048 86.38749,24.90647 2.05509,0.8703 -3.44811,6.91819 -31.01621,34.08577 -18.43296,18.16531 -33.90418,33.02796 -34.38033,33.02796 -0.47614,0 -1.13773,-0.80007 -1.47018,-1.77765 -0.12711,-0.37373 -0.32081,-1.07175 -0.56999,-2.03708 -2.55403,2.35529 -4.19783,3.81473 -4.34496,3.81473 -0.49126,0 -1.18565,-0.80007 -1.54305,-1.77765 -2.14318,-5.86211 -22.07369,-89.63787 -21.46898,-90.24255 0.0102,-0.0103 0.0409,-0.0146 0.0904,-0.0134 z m 109.16182,30.65909 3.75687,0.92761 c 0.15833,0.0391 0.61923,0.16438 1.12757,0.30334 l -0.28008,-1.23095 3.6282,0.92761 c 3.01239,0.7702 74.97546,21.91618 82.95619,24.37627 1.92955,0.59481 -2.86121,5.98845 -21.7098,24.44245 -13.30201,13.02369 -28.60321,27.97495 -34.00256,33.22484 l -9.81697,9.54463 -0.45992,-2.02055 -2.11461,2.02055 -11.54244,-46.25763 z m -5.58726,3.42358 c 0.51382,-0.19942 5.53635,19.95675 11.16158,44.79105 5.62525,24.83432 10.49795,45.95288 10.82778,46.93047 0.32983,0.9776 0.0685,1.73669 -0.58034,1.68568 -0.18909,-0.0147 -0.96226,-0.21145 -2.13164,-0.53173 -0.0905,0.3501 -0.33094,0.55922 -0.69196,0.53173 -2.44769,-0.1846 -91.66797,-26.421 -91.88172,-27.01901 -0.24255,-0.6786 66.87465,-65.80388 68.41804,-66.38769 0.12917,-0.0488 0.55904,1.13864 1.22008,3.30317 2.11354,-1.99914 3.46128,-3.22726 3.65818,-3.30367 z m 115.28703,28.60394 c 0.11049,0.01 0.37851,0.0659 0.68109,0.13177 -0.005,-0.0683 -0.006,-0.11848 0.003,-0.12713 0.15933,-0.16201 9.27703,2.37005 21.57023,5.89938 26.95893,7.47088 68.80456,19.4528 69.55338,20.10471 0.33631,0.29282 -10.86093,11.56774 -24.88322,25.05586 -14.0223,13.48809 -29.77298,28.57857 -35.00149,33.53384 l -9.5064,9.00981 -0.25836,-0.96118 -0.99685,0.96118 -1.34823,-5.46944 c -2.14416,-8.69847 -7.2276,-31.55522 -11.6236,-51.8418 -4.57322,-19.19179 -8.47942,-36.09046 -8.27751,-36.29236 0.008,-0.008 0.0373,-0.009 0.0884,-0.005 z m -10.76886,4.25503 c 0.15332,0.01 0.27741,0.0565 0.37774,0.13539 0.70083,-0.26175 1.07204,-0.12065 1.24283,0.31523 0.43199,1.10267 5.59917,23.67248 10.63241,46.0561 5.46674,22.15771 10.79521,44.13326 10.79521,44.89494 0,0.23408 -0.0815,0.38098 -1.05211,0.22427 -0.46098,0.37459 -4.06241,-0.615 -27.12548,-7.56542 -5.26486,-1.53122 -11.16338,-3.2499 -18.6092,-5.42139 -24.5595,-7.16238 -44.71557,-13.5296 -44.79055,-14.14952 -0.0753,-0.61979 15.20357,-15.86751 33.95348,-33.88371 24.91832,-23.94323 32.46781,-30.7372 34.57567,-30.60589 z m -181.07784,43.97664 c 0.44495,0.0543 2.78773,0.66699 6.17016,1.58803 -0.17283,-0.9093 -0.28731,-1.56123 -0.26146,-1.5875 0.4109,-0.41781 86.36058,25.20677 87.11869,25.97308 0.27535,0.2784 -9.7948,10.6226 -22.37796,22.98671 -12.58326,12.36406 -27.71092,27.17845 -33.61655,32.92099 l -10.73732,10.4407 -0.76068,-3.0825 -3.22564,3.0825 -1.4981,-5.56244 c -3.79539,-14.09502 -21.21784,-86.43604 -20.89486,-86.75904 0.007,-0.007 0.0346,-0.007 0.0837,-5.3e-4 z m 99.55776,32.0766 0.48574,1.93529 1.98075,-1.93529 10.04332,43.83815 c 5.52387,24.111 10.04446,44.95829 10.04745,46.3269 0.002,1.36861 -0.46024,2.43951 -1.02783,2.38019 -0.0224,-0.002 -0.13009,-0.0305 -0.23151,-0.0568 -0.0854,0.0443 -0.17452,0.0663 -0.2677,0.0568 -1.02468,-0.1035 -84.44672,-24.32124 -88.22614,-25.61238 -1.05698,-0.3611 12.88894,-14.77857 32.67605,-33.78139 z m 10.75076,0.11522 c 0.20418,-0.0123 0.93776,0.12973 2.10425,0.39947 -0.0206,-0.16986 -0.0325,-0.30541 -0.0289,-0.37518 0.0226,-0.43968 19.53834,4.9988 43.36841,12.08609 5.65327,1.68135 11.03815,3.32338 15.98456,4.86484 16.48241,4.95618 28.12428,8.84682 27.97606,9.44335 -0.19428,0.78206 -15.00994,15.49863 -32.92305,32.70393 -10.44935,10.03652 -19.83671,18.96173 -26.03199,24.77265 -4.34803,4.15057 -7.14229,6.75944 -7.35459,6.83371 -0.0117,0.004 -0.0289,-0.0138 -0.0501,-0.0527 -0.0385,0.0279 -0.0682,0.0476 -0.0832,0.0527 -0.7643,0.26037 -23.13056,-87.86175 -23.02184,-90.70457 5.3e-4,-0.0137 0.021,-0.0219 0.0605,-0.0243 z m -83.60783,76.15352 c 0.055,-0.0486 1.39943,0.28215 3.66127,0.88521 -0.0697,-0.5284 -0.0867,-0.84158 -0.0382,-0.88521 0.46204,-0.41572 89.11177,26.08172 89.85189,26.85674 0.28075,0.29408 -14.65942,15.49403 -33.20057,33.77829 -18.54116,18.28427 -34.22407,33.43688 -34.85111,33.67239 -0.0626,0.0235 -0.20346,-0.30811 -0.40978,-0.94208 -0.63847,0.56872 -1.04455,0.90959 -1.13327,0.94208 -1.05476,0.38594 -24.82199,-93.47557 -23.8802,-94.30742 z"
         style="display:inline;fill:#000000;stroke-width:1.39986"
         inkscape:label="dark" />
    </g>
  </g>
</svg>
